HIERARCHY
ROOT Hips
{
	OFFSET 0.00000 0.00000 0.00000
	CHANNELS 6 Xposition Yposition Zposition Zrotation Yrotation Xrotation 
	JOINT LHipJoint
	{
		OFFSET 0 0 0
		CHANNELS 3 Zrotation Yrotation Xrotation
		JOINT LeftUpLeg
		{
			OFFSET 1.53139 -1.83434 0.76626
			CHANNELS 3 Zrotation Yrotation Xrotation
			JOINT LeftLeg
			{
				OFFSET 2.56112 -7.03663 0.00000
				CHANNELS 3 Zrotation Yrotation Xrotation
				JOINT LeftFoot
				{
					OFFSET 2.59983 -7.14299 0.00000
					CHANNELS 3 Zrotation Yrotation Xrotation
					JOINT LeftToeBase
					{
						OFFSET 0.13742 -0.37757 2.00054
						CHANNELS 3 Zrotation Yrotation Xrotation
						End Site
						{
							OFFSET 0.00000 -0.00000 1.02897
						}
					}
				}
			}
		}
	}
	JOINT RHipJoint
	{
		OFFSET 0 0 0
		CHANNELS 3 Zrotation Yrotation Xrotation
		JOINT RightUpLeg
		{
			OFFSET -1.40122 -1.83435 0.76627
			CHANNELS 3 Zrotation Yrotation Xrotation
			JOINT RightLeg
			{
				OFFSET -2.54052 -6.98003 0.00000
				CHANNELS 3 Zrotation Yrotation Xrotation
				JOINT RightFoot
				{
					OFFSET -2.63179 -7.23079 0.00000
					CHANNELS 3 Zrotation Yrotation Xrotation
					JOINT RightToeBase
					{
						OFFSET -0.24131 -0.66299 2.03908
						CHANNELS 3 Zrotation Yrotation Xrotation
						End Site
						{
							OFFSET -0.00000 -0.00000 1.07391
						}
					}
				}
			}
		}
	}
	JOINT LowerBack
	{
		OFFSET 0 0 0
		CHANNELS 3 Zrotation Yrotation Xrotation
		JOINT Spine
		{
			OFFSET 0.01174 2.10302 -0.29778
			CHANNELS 3 Zrotation Yrotation Xrotation
			JOINT Spine1
			{
				OFFSET 0.00772 2.13227 -0.01247
				CHANNELS 3 Zrotation Yrotation Xrotation
				JOINT Neck
				{
					OFFSET 0 0 0
					CHANNELS 3 Zrotation Yrotation Xrotation
					JOINT Neck1
					{
						OFFSET -0.09219 1.60848 0.31481
						CHANNELS 3 Zrotation Yrotation Xrotation
						JOINT Head
						{
							OFFSET 0.13974 1.65456 -0.31134
							CHANNELS 3 Zrotation Yrotation Xrotation
							End Site
							{
								OFFSET 0.04742 1.69515 -0.14578
							}
						}
					}
				}
				JOINT LeftShoulder
				{
					OFFSET 0 0 0
					CHANNELS 3 Zrotation Yrotation Xrotation
					JOINT LeftArm
					{
						OFFSET 3.24909 1.02882 -0.23993
						CHANNELS 3 Zrotation Yrotation Xrotation
						JOINT LeftForeArm
						{
							OFFSET 5.32955 -0.00000 -0.00000
							CHANNELS 3 Zrotation Yrotation Xrotation
							JOINT LeftHand
							{
								OFFSET 3.69232 -0.00000 -0.00000
								CHANNELS 3 Zrotation Yrotation Xrotation
								JOINT LeftFingerBase
								{
									OFFSET 0 0 0
									CHANNELS 3 Zrotation Yrotation Xrotation
									JOINT LeftHandIndex1
									{
										OFFSET 0.53660 -0.00000 -0.00000
										CHANNELS 3 Zrotation Yrotation Xrotation
										End Site
										{
											OFFSET 0.43262 -0.00000 -0.00000
										}
									}
								}
								JOINT LThumb
								{
									OFFSET 0 0 0
									CHANNELS 3 Zrotation Yrotation Xrotation
									End Site
									{
										OFFSET 0.43922 -0.00000 0.43922
									}
								}
							}
						}
					}
				}
				JOINT RightShoulder
				{
					OFFSET 0 0 0
					CHANNELS 3 Zrotation Yrotation Xrotation
					JOINT RightArm
					{
						OFFSET -3.21387 0.93002 -0.34594
						CHANNELS 3 Zrotation Yrotation Xrotation
						JOINT RightForeArm
						{
							OFFSET -5.23431 -0.00000 0.00000
							CHANNELS 3 Zrotation Yrotation Xrotation
							JOINT RightHand
							{
								OFFSET -3.55301 -0.00000 -0.00000
								CHANNELS 3 Zrotation Yrotation Xrotation
								JOINT RightFingerBase
								{
									OFFSET 0 0 0
									CHANNELS 3 Zrotation Yrotation Xrotation
									JOINT RightHandIndex1
									{
										OFFSET -0.77252 -0.00000 -0.00000
										CHANNELS 3 Zrotation Yrotation Xrotation
										End Site
										{
											OFFSET -0.62283 -0.00000 -0.00000
										}
									}
								}
								JOINT RThumb
								{
									OFFSET 0 0 0
									CHANNELS 3 Zrotation Yrotation Xrotation
									End Site
									{
										OFFSET -0.63234 -0.00000 0.63234
									}
								}
							}
						}
					}
				}
			}
		}
	}
}
MOTION
Frames: 10
Frame Time: 0.2
0.00 0.00 0.00 0 0 0 0 0 0 -21 0 0 0 0 0 0 0 0 0 0 0 0 0 0 21 0 0 0 0 0 0 0 0 0 0 0 0 0 0 0 0 0 0 0 0 0 0 -16 0 0 21 0 0 11 0 0 0 -8 0 0 0 0 0 0 0 0 0 0 0 0 0 0 0 0 0 0 0 0 8 0 0 0 0 0 0 0 0 0 0 0 0 0 0 0 0 0
0.00 0.00 0.00 3.2813 3.4279 0.5012 0.0000 0.0000 0.0000 -24.1420 -0.9175 9.7428 2.3673 9.5925 27.6670 0.3369 -6.6703 15.4043 0.5597 -4.7921 -13.3166 0.0000 0.0000 0.0000 19.8966 4.0332 -19.2739 -1.7705 -8.3708 23.8461 -0.0395 1.1135 -3.5329 -0.3828 -3.9733 11.0016 -3.3025 -0.8491 10.8840 0.5725 -1.4944 0.9606 2.6839 -0.6609 -5.0001 -13.5369 -7.8390 -20.8592 10.9139 -9.9783 26.7078 4.7766 -4.3404 13.8592 0.0000 -0.0000 0.0000 -87.2387 0.3793 22.1935 19.9571 -30.5907 -5.5095 -0.0000 -0.0000 2.4826 24.1740 25.4119 10.9029 -7.1250 0.0000 -0.0000 -6.1575 57.3825 -1.8721 0.0000 -0.0000 0.0000 90.5399 -4.0660 2.6635 -11.6814 19.3252 -1.9956 0.0000 0.0000 15.0607 -14.3141 6.5463 -1.6662 7.1250 -0.0000 -0.0000 9.1446 -23.2439 4.8534
0.00 0.00 0.00 0.5224 3.8074 -0.4247 0.0000 0.0000 0.0000 -19.9621 -4.2403 1.6769 5.6572 14.0877 43.5899 1.0069 -8.7889 24.0604 0.0693 1.6984 4.6729 0.0000 0.0000 0.0000 24.2198 1.1141 -13.7617 -1.3593 -7.3799 20.8458 -0.0885 2.0431 -5.2839 -0.4323 -4.2194 11.6948 -0.7627 -0.8353 11.4040 1.3696 -1.1255 0.8988 2.0432 -0.5199 -5.4132 -14.0291 -8.1239 -20.1194 11.5135 -10.5355 26.7728 5.0115 -4.5823 13.8980 -0.0000 -0.0000 0.0000 -87.1825 2.9097 23.8264 17.7794 -27.8737 -4.4456 -0.0000 -0.0000 5.3701 21.8091 26.5196 10.1302 -7.1250 0.0000 -0.0000 -9.2291 57.9983 -2.9522 -0.0000 -0.0000 0.0000 90.0534 -4.5225 6.9921 -12.8994 21.1397 -2.4169 0.0000 0.0000 11.7657 -13.3546 7.5580 -1.7885 7.1250 -0.0000 -0.0000 9.7942 -22.2499 5.4341
0.00 0.00 0.00 -0.6578 1.9022 -1.5906 0.0000 0.0000 0.0000 -17.2886 -5.6303 -7.4199 8.6111 16.5509 54.7353 -0.0490 -6.4551 7.8061 0.6447 -5.1365 -14.2984 0.0000 0.0000 0.0000 26.5885 0.1457 -7.0656 -1.1514 -6.8130 19.1626 -0.1957 2.9693 -7.8582 -0.4562 -4.3330 12.0154 0.2802 0.1825 11.3562 1.4701 0.3568 1.3457 1.3232 0.1840 -4.9690 -13.8651 -8.2544 -19.8724 11.5030 -10.8462 27.0555 4.9317 -4.7086 14.0061 -0.0000 -0.0000 0.0000 -87.3912 5.1995 22.8834 16.3471 -25.9890 -3.7968 -0.0000 -0.0000 9.1322 20.5196 24.8242 8.9301 -7.1250 0.0000 -0.0000 -9.8033 55.9964 -2.6627 -0.0000 -0.0000 0.0000 89.4598 -2.6887 10.9529 -14.1193 22.9051 -2.8744 0.0000 0.0000 10.0187 -13.8081 9.5718 -2.3402 7.1250 -0.0000 -0.0000 9.3873 -20.1909 5.6458
0.00 0.00 0.00 -2.1291 -0.6494 -0.9918 0.0000 0.0000 0.0000 -13.2202 -10.0975 -20.7362 4.9516 13.3291 40.6132 0.1084 0.7016 -6.5147 0.3976 -4.0483 -11.2127 0.0000 0.0000 0.0000 29.7068 0.4786 0.8151 -1.2382 -7.0562 19.8818 -0.7091 3.0205 -15.1698 -0.1712 -2.6657 7.3493 2.8143 1.5978 11.7056 1.0752 2.5609 0.6014 -0.8791 1.1954 -5.8616 -13.4338 -8.2921 -18.8589 11.3130 -11.1319 27.1698 4.7468 -4.8451 13.8396 -0.0000 0.0000 0.0000 -88.0655 8.9594 17.0859 15.3885 -24.6845 -3.3865 -0.0000 -0.0000 8.3730 21.4274 25.7591 9.6789 -7.1250 0.0000 -0.0000 -9.2736 57.1397 -2.7742 -0.0000 0.0000 0.0000 88.6786 1.0709 17.2515 -17.3670 27.3390 -4.2545 0.0000 0.0000 5.4913 -14.9062 7.1663 -1.9020 7.1250 -0.0000 -0.0000 8.6842 -22.5911 4.7349
0.00 0.00 0.00 1.5577 -6.5992 -1.1863 0.0000 0.0000 0.0000 -18.9075 -5.7002 -13.0464 0.4980 4.5244 12.5570 -0.2436 -9.1900 6.4957 0.4027 -4.0743 -11.2858 0.0000 0.0000 0.0000 25.2937 -1.8472 5.9487 -4.4986 -12.7959 38.6092 0.0214 -3.4072 1.1129 -0.1961 -2.8516 7.8658 -0.3442 2.3665 10.5636 -0.3560 3.0821 0.5083 -0.6409 1.5207 -5.3884 -13.4638 -8.3149 -18.4621 11.8358 -11.4546 27.5321 4.9259 -4.9468 14.0066 0.0000 -0.0000 0.0000 -88.7860 8.4110 12.5578 13.2031 -21.5840 -2.5275 -0.0000 -0.0000 11.6023 21.4018 25.5207 9.5845 -7.1250 0.0000 -0.0000 -9.1897 56.8911 -2.6935 0.0000 -0.0000 0.0000 91.0639 2.2983 16.9534 -18.8572 29.2408 -4.9609 0.0000 0.0000 5.3820 -14.6485 7.0983 -1.8500 7.1250 -0.0000 -0.0000 8.8750 -22.6701 4.8251
0.00 0.00 0.00 4.3270 -9.5618 -3.1010 0.0000 0.0000 0.0000 -22.8105 -1.1076 -5.6837 0.1846 2.7676 7.6324 -0.2371 -8.9001 5.7302 0.4751 -4.4204 -12.2625 0.0000 0.0000 0.0000 20.3139 -3.1722 -2.5952 -8.7275 -16.6291 55.1430 -0.1717 -9.2005 9.1949 -1.4616 -7.6407 21.6279 -2.3048 2.5260 10.8002 -1.1074 3.0155 1.0288 -0.3120 1.5216 -5.0358 -13.2592 -7.8822 -18.6770 11.6114 -10.8476 28.0233 4.9362 -4.6873 14.1305 -0.0000 -0.0000 0.0000 -88.3094 7.4450 14.7175 13.5688 -22.1150 -2.6636 -0.0000 -0.0000 8.3853 22.4445 27.6771 10.8614 -7.1250 0.0000 -0.0000 -9.1243 59.3222 -3.2086 -0.0000 -0.0000 0.0000 91.4899 0.5630 17.3718 -18.2395 28.4627 -4.6628 0.0000 0.0000 5.9583 -14.9227 9.6743 -2.5643 7.1250 -0.0000 -0.0000 8.5914 -20.0289 5.1873
0.00 0.00 0.00 7.7212 -13.6334 -4.7343 0.0000 0.0000 0.0000 -26.7790 3.4029 1.2147 0.2214 3.0292 8.3601 -0.0703 -5.8500 -1.5808 0.5417 -4.7154 -13.0986 0.0000 0.0000 0.0000 14.3776 -4.9602 -21.5159 -12.6248 -18.6425 67.9561 -0.0580 -1.7549 -5.5527 -0.5949 -4.9379 13.7315 -5.7643 1.3400 11.6885 -1.0720 0.9564 1.0080 1.9661 0.5901 -5.5803 -13.4484 -7.4729 -19.1329 11.0736 -10.0656 28.8316 4.9236 -4.4397 14.4264 -0.0000 0.0000 0.0000 -86.4038 2.9429 17.5605 14.9917 -24.1345 -3.2225 -0.0000 -0.0000 8.9229 20.5095 25.3128 9.0869 -7.1250 0.0000 -0.0000 -10.0383 56.4904 -2.8480 -0.0000 0.0000 0.0000 91.3650 -1.9131 14.4023 -17.4581 27.4577 -4.2964 0.0000 0.0000 7.1195 -16.1909 8.2268 -2.3791 7.1250 -0.0000 -0.0000 7.7174 -21.4487 4.4002
0.00 0.00 0.00 9.0379 -17.0542 -4.1116 0.0000 0.0000 0.0000 -27.8968 5.1141 2.0354 0.4353 4.2339 11.7358 0.1168 -3.4981 -6.1818 0.7319 -5.4660 -15.2425 0.0000 0.0000 0.0000 13.8684 -4.2140 -30.6264 -8.5216 -16.4898 54.4203 -0.3605 -6.3269 -15.4103 -0.5771 -4.8646 13.5229 -6.8049 0.4290 11.7668 -1.0663 -0.4086 0.7480 2.7813 -0.0436 -5.7865 -13.3548 -7.7173 -19.9153 10.9717 -10.2834 28.2546 4.7789 -4.5138 14.3645 -0.0000 0.0000 0.0000 -83.7993 -0.3459 18.8862 16.9446 -26.7847 -4.0624 -0.0000 -0.0000 6.3253 21.4416 25.4706 9.5865 -7.1250 0.0000 -0.0000 -9.1243 56.8485 -2.6647 -0.0000 0.0000 0.0000 91.3320 -1.8368 10.0668 -16.0677 25.6123 -3.6752 0.0000 0.0000 7.3952 -15.6881 9.2072 -2.5731 7.1250 -0.0000 -0.0000 8.0561 -20.4662 4.7776
0.00 0.00 0.00 10.5401 -21.5555 -2.9322 0.0000 0.0000 0.0000 -28.1183 7.0859 12.0936 0.0000 -0.0000 -0.0000 -0.0040 1.8399 -2.2210 1.2810 -7.1725 -20.2275 0.0000 0.0000 0.0000 12.8483 1.7483 -30.3118 -1.6432 -8.0796 22.9561 0.5721 -14.9497 -12.9433 -0.9359 -6.1622 17.2559 -8.4810 -0.0531 10.6216 -0.9712 -1.1567 0.5821 3.9261 -0.3862 -5.2154 -13.6670 -7.5949 -19.2170 11.3719 -10.0678 26.7293 4.9923 -4.4273 13.5726 -0.0000 -0.0000 0.0000 -80.7489 -3.7562 19.5701 18.6974 -29.0409 -4.8831 -0.0000 -0.0000 1.8966 24.5764 24.1227 10.5870 -7.1250 0.0000 -0.0000 -5.2178 56.1198 -1.4259 -0.0000 -0.0000 0.0000 90.9089 -2.1295 6.7766 -14.2355 23.0704 -2.9198 0.0000 0.0000 9.5272 -14.5490 11.4354 -2.9456 7.1250 -0.0000 -0.0000 8.8203 -18.2558 5.6810
